<mxfile host="app.diagrams.net" modified="2024-02-28T01:54:12.270Z" agent="Mozilla/5.0 (Windows NT 10.0; Win64; x64) AppleWebKit/537.36 (KHTML, like Gecko) Chrome/122.0.0.0 Safari/537.36" etag="KeGNu136Lxt-tzbYql-E" version="23.1.7" type="google">
  <diagram name="Page-1" id="wHvKuBLqZDmaOY6_0BVb">
    <mxGraphModel dx="880" dy="506" grid="1" gridSize="10" guides="1" tooltips="1" connect="1" arrows="1" fold="1" page="1" pageScale="1" pageWidth="900" pageHeight="1600" math="0" shadow="0">
      <root>
        <mxCell id="0" />
        <mxCell id="1" parent="0" />
        <mxCell id="QsLFBTd6vt9vH_9BB9VM-1" value="&lt;font style=&quot;font-size: 18px;&quot;&gt;&lt;b&gt;Hospital&lt;/b&gt;&lt;/font&gt;" style="rounded=1;whiteSpace=wrap;html=1;" parent="1" vertex="1">
          <mxGeometry x="85" y="100" width="120" height="60" as="geometry" />
        </mxCell>
        <mxCell id="QsLFBTd6vt9vH_9BB9VM-3" value="&lt;b&gt;&lt;font style=&quot;font-size: 16px;&quot;&gt;Hospital Mangement System&lt;/font&gt;&lt;/b&gt;" style="ellipse;whiteSpace=wrap;html=1;" parent="1" vertex="1">
          <mxGeometry x="425" y="90" width="120" height="80" as="geometry" />
        </mxCell>
        <mxCell id="QsLFBTd6vt9vH_9BB9VM-5" value="" style="endArrow=classic;html=1;rounded=0;exitX=1;exitY=0.5;exitDx=0;exitDy=0;entryX=0.058;entryY=0.238;entryDx=0;entryDy=0;entryPerimeter=0;" parent="1" target="QsLFBTd6vt9vH_9BB9VM-3" edge="1">
          <mxGeometry width="50" height="50" relative="1" as="geometry">
            <mxPoint x="205" y="110" as="sourcePoint" />
            <mxPoint x="425" y="110" as="targetPoint" />
            <Array as="points">
              <mxPoint x="355" y="110" />
            </Array>
          </mxGeometry>
        </mxCell>
        <mxCell id="QsLFBTd6vt9vH_9BB9VM-6" value="&lt;b&gt;Login&lt;/b&gt;" style="text;html=1;align=center;verticalAlign=middle;resizable=0;points=[];autosize=1;strokeColor=none;fillColor=none;" parent="1" vertex="1">
          <mxGeometry x="280" y="80" width="60" height="30" as="geometry" />
        </mxCell>
        <mxCell id="QsLFBTd6vt9vH_9BB9VM-7" value="&lt;b&gt;Response&lt;/b&gt;" style="text;html=1;align=center;verticalAlign=middle;resizable=0;points=[];autosize=1;strokeColor=none;fillColor=none;" parent="1" vertex="1">
          <mxGeometry x="275" y="140" width="80" height="30" as="geometry" />
        </mxCell>
        <mxCell id="QsLFBTd6vt9vH_9BB9VM-11" value="" style="edgeStyle=orthogonalEdgeStyle;rounded=0;orthogonalLoop=1;jettySize=auto;html=1;entryX=1;entryY=0.5;entryDx=0;entryDy=0;" parent="1" edge="1">
          <mxGeometry relative="1" as="geometry">
            <mxPoint x="425" y="140" as="sourcePoint" />
            <mxPoint x="205" y="140" as="targetPoint" />
          </mxGeometry>
        </mxCell>
        <mxCell id="QsLFBTd6vt9vH_9BB9VM-12" value="&lt;b&gt;&lt;font style=&quot;font-size: 17px;&quot;&gt;DFD - 0&lt;/font&gt;&lt;/b&gt;" style="text;html=1;align=center;verticalAlign=middle;resizable=0;points=[];autosize=1;strokeColor=none;fillColor=none;" parent="1" vertex="1">
          <mxGeometry x="30" y="58" width="80" height="30" as="geometry" />
        </mxCell>
        <mxCell id="QsLFBTd6vt9vH_9BB9VM-13" value="&lt;b&gt;&lt;font style=&quot;font-size: 16px;&quot;&gt;DFD -1&lt;/font&gt;&lt;/b&gt;" style="text;html=1;align=center;verticalAlign=middle;resizable=0;points=[];autosize=1;strokeColor=none;fillColor=none;" parent="1" vertex="1">
          <mxGeometry x="40" y="198" width="80" height="30" as="geometry" />
        </mxCell>
        <mxCell id="QsLFBTd6vt9vH_9BB9VM-14" value="&lt;b&gt;&lt;font style=&quot;font-size: 17px;&quot;&gt;Hospital Staff&lt;/font&gt;&lt;/b&gt;" style="rounded=0;whiteSpace=wrap;html=1;" parent="1" vertex="1">
          <mxGeometry x="40" y="270" width="120" height="60" as="geometry" />
        </mxCell>
        <mxCell id="QsLFBTd6vt9vH_9BB9VM-18" value="&lt;b&gt;&lt;font style=&quot;font-size: 17px;&quot;&gt;Login&lt;/font&gt;&lt;/b&gt;" style="strokeWidth=2;html=1;shape=mxgraph.flowchart.terminator;whiteSpace=wrap;" parent="1" vertex="1">
          <mxGeometry x="364" y="270" width="100" height="60" as="geometry" />
        </mxCell>
        <mxCell id="QsLFBTd6vt9vH_9BB9VM-20" value="&lt;b&gt;&lt;font style=&quot;font-size: 16px;&quot;&gt;Add Patient&lt;/font&gt;&lt;/b&gt;" style="strokeWidth=2;html=1;shape=mxgraph.flowchart.terminator;whiteSpace=wrap;" parent="1" vertex="1">
          <mxGeometry x="360" y="540" width="100" height="60" as="geometry" />
        </mxCell>
        <mxCell id="QsLFBTd6vt9vH_9BB9VM-21" value="&lt;b&gt;&lt;font style=&quot;font-size: 16px;&quot;&gt;Add Doctor&lt;/font&gt;&lt;/b&gt;" style="strokeWidth=2;html=1;shape=mxgraph.flowchart.terminator;whiteSpace=wrap;" parent="1" vertex="1">
          <mxGeometry x="360" y="450" width="100" height="60" as="geometry" />
        </mxCell>
        <mxCell id="QsLFBTd6vt9vH_9BB9VM-22" value="&lt;font style=&quot;font-size: 16px;&quot;&gt;&lt;b&gt;Add Room&lt;/b&gt;&lt;/font&gt;" style="strokeWidth=2;html=1;shape=mxgraph.flowchart.terminator;whiteSpace=wrap;" parent="1" vertex="1">
          <mxGeometry x="360" y="360" width="100" height="60" as="geometry" />
        </mxCell>
        <mxCell id="QsLFBTd6vt9vH_9BB9VM-23" value="&lt;b&gt;&lt;font style=&quot;font-size: 16px;&quot;&gt;Views Report&lt;/font&gt;&lt;/b&gt;" style="strokeWidth=2;html=1;shape=mxgraph.flowchart.terminator;whiteSpace=wrap;" parent="1" vertex="1">
          <mxGeometry x="364" y="630" width="100" height="60" as="geometry" />
        </mxCell>
        <mxCell id="QsLFBTd6vt9vH_9BB9VM-24" style="edgeStyle=orthogonalEdgeStyle;rounded=0;orthogonalLoop=1;jettySize=auto;html=1;exitX=1;exitY=0.25;exitDx=0;exitDy=0;entryX=0.06;entryY=0.233;entryDx=0;entryDy=0;entryPerimeter=0;" parent="1" source="QsLFBTd6vt9vH_9BB9VM-14" target="QsLFBTd6vt9vH_9BB9VM-18" edge="1">
          <mxGeometry relative="1" as="geometry" />
        </mxCell>
        <mxCell id="QsLFBTd6vt9vH_9BB9VM-25" value="" style="endArrow=classic;html=1;rounded=0;entryX=1;entryY=0.5;entryDx=0;entryDy=0;exitX=0;exitY=0.5;exitDx=0;exitDy=0;exitPerimeter=0;" parent="1" source="QsLFBTd6vt9vH_9BB9VM-18" target="QsLFBTd6vt9vH_9BB9VM-14" edge="1">
          <mxGeometry width="50" height="50" relative="1" as="geometry">
            <mxPoint x="360" y="310" as="sourcePoint" />
            <mxPoint x="410" y="300" as="targetPoint" />
          </mxGeometry>
        </mxCell>
        <mxCell id="QsLFBTd6vt9vH_9BB9VM-26" value="" style="endArrow=classic;html=1;rounded=0;entryX=0;entryY=0.333;entryDx=0;entryDy=0;entryPerimeter=0;" parent="1" target="QsLFBTd6vt9vH_9BB9VM-22" edge="1">
          <mxGeometry width="50" height="50" relative="1" as="geometry">
            <mxPoint x="150" y="330" as="sourcePoint" />
            <mxPoint x="350" y="380" as="targetPoint" />
            <Array as="points">
              <mxPoint x="150" y="380" />
            </Array>
          </mxGeometry>
        </mxCell>
        <mxCell id="QsLFBTd6vt9vH_9BB9VM-27" value="" style="endArrow=classic;html=1;rounded=0;entryX=0.808;entryY=1;entryDx=0;entryDy=0;entryPerimeter=0;" parent="1" target="QsLFBTd6vt9vH_9BB9VM-14" edge="1">
          <mxGeometry width="50" height="50" relative="1" as="geometry">
            <mxPoint x="360" y="400" as="sourcePoint" />
            <mxPoint x="590" y="350" as="targetPoint" />
            <Array as="points">
              <mxPoint x="137" y="400" />
            </Array>
          </mxGeometry>
        </mxCell>
        <mxCell id="QsLFBTd6vt9vH_9BB9VM-28" value="" style="endArrow=classic;html=1;rounded=0;exitX=0.675;exitY=1.05;exitDx=0;exitDy=0;exitPerimeter=0;entryX=0;entryY=0.317;entryDx=0;entryDy=0;entryPerimeter=0;" parent="1" source="QsLFBTd6vt9vH_9BB9VM-14" target="QsLFBTd6vt9vH_9BB9VM-21" edge="1">
          <mxGeometry width="50" height="50" relative="1" as="geometry">
            <mxPoint x="540" y="400" as="sourcePoint" />
            <mxPoint x="350" y="470" as="targetPoint" />
            <Array as="points">
              <mxPoint x="120" y="470" />
              <mxPoint x="240" y="470" />
            </Array>
          </mxGeometry>
        </mxCell>
        <mxCell id="QsLFBTd6vt9vH_9BB9VM-33" value="" style="endArrow=classic;html=1;rounded=0;entryX=0.558;entryY=1.033;entryDx=0;entryDy=0;entryPerimeter=0;" parent="1" target="QsLFBTd6vt9vH_9BB9VM-14" edge="1">
          <mxGeometry width="50" height="50" relative="1" as="geometry">
            <mxPoint x="360" y="490" as="sourcePoint" />
            <mxPoint x="110" y="340" as="targetPoint" />
            <Array as="points">
              <mxPoint x="107" y="490" />
            </Array>
          </mxGeometry>
        </mxCell>
        <mxCell id="QsLFBTd6vt9vH_9BB9VM-34" value="" style="endArrow=classic;html=1;rounded=0;entryX=-0.03;entryY=0.317;entryDx=0;entryDy=0;entryPerimeter=0;exitX=0.408;exitY=1.05;exitDx=0;exitDy=0;exitPerimeter=0;" parent="1" source="QsLFBTd6vt9vH_9BB9VM-14" target="QsLFBTd6vt9vH_9BB9VM-20" edge="1">
          <mxGeometry width="50" height="50" relative="1" as="geometry">
            <mxPoint x="540" y="400" as="sourcePoint" />
            <mxPoint x="590" y="350" as="targetPoint" />
            <Array as="points">
              <mxPoint x="90" y="559" />
            </Array>
          </mxGeometry>
        </mxCell>
        <mxCell id="QsLFBTd6vt9vH_9BB9VM-35" value="" style="endArrow=classic;html=1;rounded=0;entryX=0.333;entryY=1;entryDx=0;entryDy=0;entryPerimeter=0;" parent="1" target="QsLFBTd6vt9vH_9BB9VM-14" edge="1">
          <mxGeometry width="50" height="50" relative="1" as="geometry">
            <mxPoint x="360" y="580" as="sourcePoint" />
            <mxPoint x="590" y="350" as="targetPoint" />
            <Array as="points">
              <mxPoint x="230" y="580" />
              <mxPoint x="80" y="580" />
            </Array>
          </mxGeometry>
        </mxCell>
        <mxCell id="QsLFBTd6vt9vH_9BB9VM-36" value="" style="endArrow=classic;html=1;rounded=0;exitX=0.25;exitY=1;exitDx=0;exitDy=0;" parent="1" source="QsLFBTd6vt9vH_9BB9VM-14" edge="1">
          <mxGeometry width="50" height="50" relative="1" as="geometry">
            <mxPoint x="540" y="400" as="sourcePoint" />
            <mxPoint x="360" y="650" as="targetPoint" />
            <Array as="points">
              <mxPoint x="70" y="650" />
              <mxPoint x="220" y="650" />
            </Array>
          </mxGeometry>
        </mxCell>
        <mxCell id="QsLFBTd6vt9vH_9BB9VM-37" value="" style="endArrow=classic;html=1;rounded=0;exitX=-0.02;exitY=0.65;exitDx=0;exitDy=0;exitPerimeter=0;entryX=0.133;entryY=1.017;entryDx=0;entryDy=0;entryPerimeter=0;" parent="1" source="QsLFBTd6vt9vH_9BB9VM-23" target="QsLFBTd6vt9vH_9BB9VM-14" edge="1">
          <mxGeometry width="50" height="50" relative="1" as="geometry">
            <mxPoint x="540" y="400" as="sourcePoint" />
            <mxPoint x="590" y="350" as="targetPoint" />
            <Array as="points">
              <mxPoint x="56" y="670" />
            </Array>
          </mxGeometry>
        </mxCell>
        <mxCell id="QsLFBTd6vt9vH_9BB9VM-46" value="&lt;b&gt;&lt;font style=&quot;font-size: 16px;&quot;&gt;Room Mst&lt;/font&gt;&lt;/b&gt;" style="shape=partialRectangle;whiteSpace=wrap;html=1;left=0;right=0;fillColor=none;" parent="1" vertex="1">
          <mxGeometry x="610" y="360" width="120" height="40" as="geometry" />
        </mxCell>
        <mxCell id="QsLFBTd6vt9vH_9BB9VM-49" value="&lt;b&gt;&lt;font style=&quot;font-size: 16px;&quot;&gt;Doctor Mst&lt;/font&gt;&lt;/b&gt;" style="shape=partialRectangle;whiteSpace=wrap;html=1;left=0;right=0;fillColor=none;" parent="1" vertex="1">
          <mxGeometry x="620" y="460" width="120" height="40" as="geometry" />
        </mxCell>
        <mxCell id="QsLFBTd6vt9vH_9BB9VM-50" value="" style="endArrow=classic;html=1;rounded=0;exitX=0.9;exitY=0.167;exitDx=0;exitDy=0;exitPerimeter=0;" parent="1" source="QsLFBTd6vt9vH_9BB9VM-22" edge="1">
          <mxGeometry width="50" height="50" relative="1" as="geometry">
            <mxPoint x="480" y="400" as="sourcePoint" />
            <mxPoint x="600" y="370" as="targetPoint" />
          </mxGeometry>
        </mxCell>
        <mxCell id="QsLFBTd6vt9vH_9BB9VM-51" value="&lt;b&gt;&lt;font style=&quot;font-size: 16px;&quot;&gt;PatientMst&lt;/font&gt;&lt;/b&gt;" style="shape=partialRectangle;whiteSpace=wrap;html=1;left=0;right=0;fillColor=none;" parent="1" vertex="1">
          <mxGeometry x="620" y="550" width="120" height="40" as="geometry" />
        </mxCell>
        <mxCell id="QsLFBTd6vt9vH_9BB9VM-52" value="" style="endArrow=classic;html=1;rounded=0;entryX=1;entryY=0.5;entryDx=0;entryDy=0;entryPerimeter=0;" parent="1" target="QsLFBTd6vt9vH_9BB9VM-22" edge="1">
          <mxGeometry width="50" height="50" relative="1" as="geometry">
            <mxPoint x="600" y="390" as="sourcePoint" />
            <mxPoint x="530" y="350" as="targetPoint" />
          </mxGeometry>
        </mxCell>
        <mxCell id="QsLFBTd6vt9vH_9BB9VM-53" value="" style="endArrow=classic;html=1;rounded=0;" parent="1" edge="1">
          <mxGeometry width="50" height="50" relative="1" as="geometry">
            <mxPoint x="460" y="470" as="sourcePoint" />
            <mxPoint x="610" y="470" as="targetPoint" />
          </mxGeometry>
        </mxCell>
        <mxCell id="QsLFBTd6vt9vH_9BB9VM-54" value="" style="endArrow=classic;html=1;rounded=0;" parent="1" edge="1">
          <mxGeometry width="50" height="50" relative="1" as="geometry">
            <mxPoint x="610" y="490" as="sourcePoint" />
            <mxPoint x="460" y="490" as="targetPoint" />
          </mxGeometry>
        </mxCell>
        <mxCell id="QsLFBTd6vt9vH_9BB9VM-55" value="" style="endArrow=classic;html=1;rounded=0;exitX=0.98;exitY=0.317;exitDx=0;exitDy=0;exitPerimeter=0;" parent="1" edge="1">
          <mxGeometry width="50" height="50" relative="1" as="geometry">
            <mxPoint x="460" y="559.98" as="sourcePoint" />
            <mxPoint x="598" y="560.98" as="targetPoint" />
            <Array as="points">
              <mxPoint x="538" y="560.98" />
            </Array>
          </mxGeometry>
        </mxCell>
        <mxCell id="QsLFBTd6vt9vH_9BB9VM-56" value="" style="endArrow=classic;html=1;rounded=0;exitX=0.98;exitY=0.317;exitDx=0;exitDy=0;exitPerimeter=0;" parent="1" edge="1">
          <mxGeometry width="50" height="50" relative="1" as="geometry">
            <mxPoint x="460" y="559.98" as="sourcePoint" />
            <mxPoint x="598" y="560.98" as="targetPoint" />
            <Array as="points">
              <mxPoint x="538" y="560.98" />
            </Array>
          </mxGeometry>
        </mxCell>
        <mxCell id="QsLFBTd6vt9vH_9BB9VM-57" value="&lt;b&gt;&lt;font style=&quot;font-size: 16px;&quot;&gt;PatientMst/&lt;br&gt;BilledMst&lt;br&gt;&lt;/font&gt;&lt;/b&gt;" style="shape=partialRectangle;whiteSpace=wrap;html=1;left=0;right=0;fillColor=none;" parent="1" vertex="1">
          <mxGeometry x="610" y="640" width="120" height="40" as="geometry" />
        </mxCell>
        <mxCell id="QsLFBTd6vt9vH_9BB9VM-58" value="" style="endArrow=classic;html=1;rounded=0;entryX=0.96;entryY=0.733;entryDx=0;entryDy=0;entryPerimeter=0;" parent="1" target="QsLFBTd6vt9vH_9BB9VM-20" edge="1">
          <mxGeometry width="50" height="50" relative="1" as="geometry">
            <mxPoint x="600" y="584" as="sourcePoint" />
            <mxPoint x="460" y="584" as="targetPoint" />
          </mxGeometry>
        </mxCell>
        <mxCell id="QsLFBTd6vt9vH_9BB9VM-59" value="" style="endArrow=classic;html=1;rounded=0;exitX=0.98;exitY=0.317;exitDx=0;exitDy=0;exitPerimeter=0;" parent="1" edge="1">
          <mxGeometry width="50" height="50" relative="1" as="geometry">
            <mxPoint x="460" y="649.98" as="sourcePoint" />
            <mxPoint x="598" y="650.98" as="targetPoint" />
            <Array as="points">
              <mxPoint x="538" y="650.98" />
            </Array>
          </mxGeometry>
        </mxCell>
        <mxCell id="QsLFBTd6vt9vH_9BB9VM-60" value="" style="endArrow=classic;html=1;rounded=0;" parent="1" edge="1">
          <mxGeometry width="50" height="50" relative="1" as="geometry">
            <mxPoint x="600" y="670" as="sourcePoint" />
            <mxPoint x="464" y="670" as="targetPoint" />
          </mxGeometry>
        </mxCell>
        <mxCell id="QsLFBTd6vt9vH_9BB9VM-61" value="&lt;b&gt;&lt;font style=&quot;font-size: 14px;&quot;&gt;Resuest to login&lt;/font&gt;&lt;/b&gt;" style="text;html=1;align=center;verticalAlign=middle;resizable=0;points=[];autosize=1;strokeColor=none;fillColor=none;" parent="1" vertex="1">
          <mxGeometry x="195" y="258" width="130" height="30" as="geometry" />
        </mxCell>
        <mxCell id="QsLFBTd6vt9vH_9BB9VM-62" value="&lt;b&gt;Response&lt;/b&gt;" style="text;html=1;align=center;verticalAlign=middle;resizable=0;points=[];autosize=1;strokeColor=none;fillColor=none;" parent="1" vertex="1">
          <mxGeometry x="220" y="298" width="80" height="30" as="geometry" />
        </mxCell>
        <mxCell id="QsLFBTd6vt9vH_9BB9VM-63" value="&lt;b&gt;Add Room&lt;/b&gt;" style="text;html=1;align=center;verticalAlign=middle;resizable=0;points=[];autosize=1;strokeColor=none;fillColor=none;" parent="1" vertex="1">
          <mxGeometry x="210" y="358" width="80" height="30" as="geometry" />
        </mxCell>
        <mxCell id="QsLFBTd6vt9vH_9BB9VM-64" value="&lt;b&gt;Response&lt;/b&gt;" style="text;html=1;align=center;verticalAlign=middle;resizable=0;points=[];autosize=1;strokeColor=none;fillColor=none;" parent="1" vertex="1">
          <mxGeometry x="210" y="398" width="80" height="30" as="geometry" />
        </mxCell>
        <mxCell id="QsLFBTd6vt9vH_9BB9VM-65" value="&lt;b&gt;Add Doctor&lt;/b&gt;" style="text;html=1;align=center;verticalAlign=middle;resizable=0;points=[];autosize=1;strokeColor=none;fillColor=none;" parent="1" vertex="1">
          <mxGeometry x="195" y="448" width="90" height="30" as="geometry" />
        </mxCell>
        <mxCell id="QsLFBTd6vt9vH_9BB9VM-66" value="&lt;b&gt;Respose&lt;/b&gt;" style="text;html=1;align=center;verticalAlign=middle;resizable=0;points=[];autosize=1;strokeColor=none;fillColor=none;" parent="1" vertex="1">
          <mxGeometry x="205" y="488" width="70" height="30" as="geometry" />
        </mxCell>
        <mxCell id="QsLFBTd6vt9vH_9BB9VM-69" value="&lt;b&gt;Add Patient&lt;/b&gt;" style="text;html=1;align=center;verticalAlign=middle;resizable=0;points=[];autosize=1;strokeColor=none;fillColor=none;" parent="1" vertex="1">
          <mxGeometry x="185" y="528" width="90" height="30" as="geometry" />
        </mxCell>
        <mxCell id="QsLFBTd6vt9vH_9BB9VM-70" value="&lt;b&gt;Response&lt;/b&gt;" style="text;html=1;align=center;verticalAlign=middle;resizable=0;points=[];autosize=1;strokeColor=none;fillColor=none;" parent="1" vertex="1">
          <mxGeometry x="195" y="578" width="80" height="30" as="geometry" />
        </mxCell>
        <mxCell id="QsLFBTd6vt9vH_9BB9VM-71" value="&lt;b&gt;Request to Response&lt;/b&gt;" style="text;html=1;align=center;verticalAlign=middle;resizable=0;points=[];autosize=1;strokeColor=none;fillColor=none;" parent="1" vertex="1">
          <mxGeometry x="155" y="618" width="150" height="30" as="geometry" />
        </mxCell>
        <mxCell id="QsLFBTd6vt9vH_9BB9VM-72" value="&lt;b&gt;Response&lt;/b&gt;" style="text;html=1;align=center;verticalAlign=middle;resizable=0;points=[];autosize=1;strokeColor=none;fillColor=none;" parent="1" vertex="1">
          <mxGeometry x="180" y="668" width="80" height="30" as="geometry" />
        </mxCell>
        <mxCell id="QsLFBTd6vt9vH_9BB9VM-151" value="&lt;b&gt;&lt;font style=&quot;font-size: 17px;&quot;&gt;Hospital Staff&lt;/font&gt;&lt;/b&gt;" style="rounded=0;whiteSpace=wrap;html=1;" parent="1" vertex="1">
          <mxGeometry x="64" y="840" width="120" height="60" as="geometry" />
        </mxCell>
        <mxCell id="QsLFBTd6vt9vH_9BB9VM-152" value="&lt;b&gt;&lt;font style=&quot;font-size: 17px;&quot;&gt;Login&lt;/font&gt;&lt;/b&gt;" style="strokeWidth=2;html=1;shape=mxgraph.flowchart.terminator;whiteSpace=wrap;" parent="1" vertex="1">
          <mxGeometry x="388" y="840" width="100" height="60" as="geometry" />
        </mxCell>
        <mxCell id="QsLFBTd6vt9vH_9BB9VM-153" value="&lt;b&gt;&lt;font style=&quot;font-size: 16px;&quot;&gt;Delete Room&lt;/font&gt;&lt;/b&gt;" style="strokeWidth=2;html=1;shape=mxgraph.flowchart.terminator;whiteSpace=wrap;" parent="1" vertex="1">
          <mxGeometry x="384" y="1110" width="100" height="60" as="geometry" />
        </mxCell>
        <mxCell id="QsLFBTd6vt9vH_9BB9VM-154" value="&lt;span style=&quot;font-size: 16px;&quot;&gt;&lt;b&gt;Update Rate&lt;/b&gt;&lt;/span&gt;" style="strokeWidth=2;html=1;shape=mxgraph.flowchart.terminator;whiteSpace=wrap;" parent="1" vertex="1">
          <mxGeometry x="384" y="1020" width="100" height="60" as="geometry" />
        </mxCell>
        <mxCell id="QsLFBTd6vt9vH_9BB9VM-155" value="&lt;font style=&quot;font-size: 16px;&quot;&gt;&lt;b&gt;Add Room&lt;/b&gt;&lt;/font&gt;" style="strokeWidth=2;html=1;shape=mxgraph.flowchart.terminator;whiteSpace=wrap;" parent="1" vertex="1">
          <mxGeometry x="384" y="930" width="100" height="60" as="geometry" />
        </mxCell>
        <mxCell id="QsLFBTd6vt9vH_9BB9VM-156" value="&lt;b&gt;&lt;font style=&quot;font-size: 16px;&quot;&gt;Views Report&lt;/font&gt;&lt;/b&gt;" style="strokeWidth=2;html=1;shape=mxgraph.flowchart.terminator;whiteSpace=wrap;" parent="1" vertex="1">
          <mxGeometry x="388" y="1200" width="100" height="60" as="geometry" />
        </mxCell>
        <mxCell id="QsLFBTd6vt9vH_9BB9VM-157" style="edgeStyle=orthogonalEdgeStyle;rounded=0;orthogonalLoop=1;jettySize=auto;html=1;exitX=1;exitY=0.25;exitDx=0;exitDy=0;entryX=0.06;entryY=0.233;entryDx=0;entryDy=0;entryPerimeter=0;" parent="1" source="QsLFBTd6vt9vH_9BB9VM-151" target="QsLFBTd6vt9vH_9BB9VM-152" edge="1">
          <mxGeometry relative="1" as="geometry" />
        </mxCell>
        <mxCell id="QsLFBTd6vt9vH_9BB9VM-158" value="" style="endArrow=classic;html=1;rounded=0;entryX=1;entryY=0.5;entryDx=0;entryDy=0;exitX=0;exitY=0.5;exitDx=0;exitDy=0;exitPerimeter=0;" parent="1" source="QsLFBTd6vt9vH_9BB9VM-152" target="QsLFBTd6vt9vH_9BB9VM-151" edge="1">
          <mxGeometry width="50" height="50" relative="1" as="geometry">
            <mxPoint x="384" y="880" as="sourcePoint" />
            <mxPoint x="434" y="870" as="targetPoint" />
          </mxGeometry>
        </mxCell>
        <mxCell id="QsLFBTd6vt9vH_9BB9VM-159" value="" style="endArrow=classic;html=1;rounded=0;entryX=0;entryY=0.333;entryDx=0;entryDy=0;entryPerimeter=0;" parent="1" target="QsLFBTd6vt9vH_9BB9VM-155" edge="1">
          <mxGeometry width="50" height="50" relative="1" as="geometry">
            <mxPoint x="174" y="900" as="sourcePoint" />
            <mxPoint x="374" y="950" as="targetPoint" />
            <Array as="points">
              <mxPoint x="174" y="950" />
            </Array>
          </mxGeometry>
        </mxCell>
        <mxCell id="QsLFBTd6vt9vH_9BB9VM-160" value="" style="endArrow=classic;html=1;rounded=0;entryX=0.808;entryY=1;entryDx=0;entryDy=0;entryPerimeter=0;" parent="1" target="QsLFBTd6vt9vH_9BB9VM-151" edge="1">
          <mxGeometry width="50" height="50" relative="1" as="geometry">
            <mxPoint x="384" y="970" as="sourcePoint" />
            <mxPoint x="614" y="920" as="targetPoint" />
            <Array as="points">
              <mxPoint x="161" y="970" />
            </Array>
          </mxGeometry>
        </mxCell>
        <mxCell id="QsLFBTd6vt9vH_9BB9VM-161" value="" style="endArrow=classic;html=1;rounded=0;exitX=0.675;exitY=1.05;exitDx=0;exitDy=0;exitPerimeter=0;entryX=0;entryY=0.317;entryDx=0;entryDy=0;entryPerimeter=0;" parent="1" source="QsLFBTd6vt9vH_9BB9VM-151" target="QsLFBTd6vt9vH_9BB9VM-154" edge="1">
          <mxGeometry width="50" height="50" relative="1" as="geometry">
            <mxPoint x="564" y="970" as="sourcePoint" />
            <mxPoint x="374" y="1040" as="targetPoint" />
            <Array as="points">
              <mxPoint x="144" y="1040" />
              <mxPoint x="264" y="1040" />
            </Array>
          </mxGeometry>
        </mxCell>
        <mxCell id="QsLFBTd6vt9vH_9BB9VM-162" value="" style="endArrow=classic;html=1;rounded=0;entryX=0.558;entryY=1.033;entryDx=0;entryDy=0;entryPerimeter=0;" parent="1" target="QsLFBTd6vt9vH_9BB9VM-151" edge="1">
          <mxGeometry width="50" height="50" relative="1" as="geometry">
            <mxPoint x="384" y="1060" as="sourcePoint" />
            <mxPoint x="134" y="910" as="targetPoint" />
            <Array as="points">
              <mxPoint x="131" y="1060" />
            </Array>
          </mxGeometry>
        </mxCell>
        <mxCell id="QsLFBTd6vt9vH_9BB9VM-163" value="" style="endArrow=classic;html=1;rounded=0;entryX=-0.03;entryY=0.317;entryDx=0;entryDy=0;entryPerimeter=0;exitX=0.408;exitY=1.05;exitDx=0;exitDy=0;exitPerimeter=0;" parent="1" source="QsLFBTd6vt9vH_9BB9VM-151" target="QsLFBTd6vt9vH_9BB9VM-153" edge="1">
          <mxGeometry width="50" height="50" relative="1" as="geometry">
            <mxPoint x="564" y="970" as="sourcePoint" />
            <mxPoint x="614" y="920" as="targetPoint" />
            <Array as="points">
              <mxPoint x="114" y="1129" />
            </Array>
          </mxGeometry>
        </mxCell>
        <mxCell id="QsLFBTd6vt9vH_9BB9VM-164" value="" style="endArrow=classic;html=1;rounded=0;entryX=0.333;entryY=1;entryDx=0;entryDy=0;entryPerimeter=0;" parent="1" target="QsLFBTd6vt9vH_9BB9VM-151" edge="1">
          <mxGeometry width="50" height="50" relative="1" as="geometry">
            <mxPoint x="384" y="1150" as="sourcePoint" />
            <mxPoint x="614" y="920" as="targetPoint" />
            <Array as="points">
              <mxPoint x="254" y="1150" />
              <mxPoint x="104" y="1150" />
            </Array>
          </mxGeometry>
        </mxCell>
        <mxCell id="QsLFBTd6vt9vH_9BB9VM-165" value="" style="endArrow=classic;html=1;rounded=0;exitX=0.25;exitY=1;exitDx=0;exitDy=0;" parent="1" source="QsLFBTd6vt9vH_9BB9VM-151" edge="1">
          <mxGeometry width="50" height="50" relative="1" as="geometry">
            <mxPoint x="564" y="970" as="sourcePoint" />
            <mxPoint x="384" y="1220" as="targetPoint" />
            <Array as="points">
              <mxPoint x="94" y="1220" />
              <mxPoint x="244" y="1220" />
            </Array>
          </mxGeometry>
        </mxCell>
        <mxCell id="QsLFBTd6vt9vH_9BB9VM-166" value="" style="endArrow=classic;html=1;rounded=0;exitX=-0.02;exitY=0.65;exitDx=0;exitDy=0;exitPerimeter=0;entryX=0.133;entryY=1.017;entryDx=0;entryDy=0;entryPerimeter=0;" parent="1" source="QsLFBTd6vt9vH_9BB9VM-156" target="QsLFBTd6vt9vH_9BB9VM-151" edge="1">
          <mxGeometry width="50" height="50" relative="1" as="geometry">
            <mxPoint x="564" y="970" as="sourcePoint" />
            <mxPoint x="614" y="920" as="targetPoint" />
            <Array as="points">
              <mxPoint x="80" y="1240" />
            </Array>
          </mxGeometry>
        </mxCell>
        <mxCell id="QsLFBTd6vt9vH_9BB9VM-167" value="&lt;b&gt;&lt;font style=&quot;font-size: 16px;&quot;&gt;Room Mst&lt;/font&gt;&lt;/b&gt;" style="shape=partialRectangle;whiteSpace=wrap;html=1;left=0;right=0;fillColor=none;" parent="1" vertex="1">
          <mxGeometry x="640" y="930" width="120" height="40" as="geometry" />
        </mxCell>
        <mxCell id="QsLFBTd6vt9vH_9BB9VM-168" value="&lt;b&gt;&lt;font style=&quot;font-size: 16px;&quot;&gt;Room Mst&lt;/font&gt;&lt;/b&gt;" style="shape=partialRectangle;whiteSpace=wrap;html=1;left=0;right=0;fillColor=none;" parent="1" vertex="1">
          <mxGeometry x="640" y="1030" width="120" height="40" as="geometry" />
        </mxCell>
        <mxCell id="QsLFBTd6vt9vH_9BB9VM-169" value="" style="endArrow=classic;html=1;rounded=0;exitX=0.9;exitY=0.167;exitDx=0;exitDy=0;exitPerimeter=0;" parent="1" source="QsLFBTd6vt9vH_9BB9VM-155" edge="1">
          <mxGeometry width="50" height="50" relative="1" as="geometry">
            <mxPoint x="504" y="970" as="sourcePoint" />
            <mxPoint x="624" y="940" as="targetPoint" />
          </mxGeometry>
        </mxCell>
        <mxCell id="QsLFBTd6vt9vH_9BB9VM-170" value="&lt;b&gt;&lt;font style=&quot;font-size: 16px;&quot;&gt;RoomMst&lt;/font&gt;&lt;/b&gt;" style="shape=partialRectangle;whiteSpace=wrap;html=1;left=0;right=0;fillColor=none;" parent="1" vertex="1">
          <mxGeometry x="634" y="1120" width="120" height="40" as="geometry" />
        </mxCell>
        <mxCell id="QsLFBTd6vt9vH_9BB9VM-171" value="" style="endArrow=classic;html=1;rounded=0;entryX=1;entryY=0.5;entryDx=0;entryDy=0;entryPerimeter=0;" parent="1" target="QsLFBTd6vt9vH_9BB9VM-155" edge="1">
          <mxGeometry width="50" height="50" relative="1" as="geometry">
            <mxPoint x="624" y="960" as="sourcePoint" />
            <mxPoint x="554" y="920" as="targetPoint" />
          </mxGeometry>
        </mxCell>
        <mxCell id="QsLFBTd6vt9vH_9BB9VM-172" value="" style="endArrow=classic;html=1;rounded=0;" parent="1" edge="1">
          <mxGeometry width="50" height="50" relative="1" as="geometry">
            <mxPoint x="484" y="1040" as="sourcePoint" />
            <mxPoint x="634" y="1040" as="targetPoint" />
          </mxGeometry>
        </mxCell>
        <mxCell id="QsLFBTd6vt9vH_9BB9VM-173" value="" style="endArrow=classic;html=1;rounded=0;" parent="1" edge="1">
          <mxGeometry width="50" height="50" relative="1" as="geometry">
            <mxPoint x="634" y="1060" as="sourcePoint" />
            <mxPoint x="484" y="1060" as="targetPoint" />
          </mxGeometry>
        </mxCell>
        <mxCell id="QsLFBTd6vt9vH_9BB9VM-174" value="" style="endArrow=classic;html=1;rounded=0;exitX=0.98;exitY=0.317;exitDx=0;exitDy=0;exitPerimeter=0;" parent="1" edge="1">
          <mxGeometry width="50" height="50" relative="1" as="geometry">
            <mxPoint x="484" y="1129.98" as="sourcePoint" />
            <mxPoint x="622" y="1130.98" as="targetPoint" />
            <Array as="points">
              <mxPoint x="562" y="1130.98" />
            </Array>
          </mxGeometry>
        </mxCell>
        <mxCell id="QsLFBTd6vt9vH_9BB9VM-175" value="" style="endArrow=classic;html=1;rounded=0;exitX=0.98;exitY=0.317;exitDx=0;exitDy=0;exitPerimeter=0;" parent="1" edge="1">
          <mxGeometry width="50" height="50" relative="1" as="geometry">
            <mxPoint x="484" y="1129.98" as="sourcePoint" />
            <mxPoint x="622" y="1130.98" as="targetPoint" />
            <Array as="points">
              <mxPoint x="562" y="1130.98" />
            </Array>
          </mxGeometry>
        </mxCell>
        <mxCell id="QsLFBTd6vt9vH_9BB9VM-176" value="&lt;b&gt;&lt;font style=&quot;font-size: 16px;&quot;&gt;RoomMst&lt;br&gt;&lt;/font&gt;&lt;/b&gt;" style="shape=partialRectangle;whiteSpace=wrap;html=1;left=0;right=0;fillColor=none;" parent="1" vertex="1">
          <mxGeometry x="634" y="1210" width="120" height="40" as="geometry" />
        </mxCell>
        <mxCell id="QsLFBTd6vt9vH_9BB9VM-177" value="" style="endArrow=classic;html=1;rounded=0;entryX=0.96;entryY=0.733;entryDx=0;entryDy=0;entryPerimeter=0;" parent="1" target="QsLFBTd6vt9vH_9BB9VM-153" edge="1">
          <mxGeometry width="50" height="50" relative="1" as="geometry">
            <mxPoint x="624" y="1154" as="sourcePoint" />
            <mxPoint x="484" y="1154" as="targetPoint" />
          </mxGeometry>
        </mxCell>
        <mxCell id="QsLFBTd6vt9vH_9BB9VM-178" value="" style="endArrow=classic;html=1;rounded=0;exitX=0.98;exitY=0.317;exitDx=0;exitDy=0;exitPerimeter=0;" parent="1" edge="1">
          <mxGeometry width="50" height="50" relative="1" as="geometry">
            <mxPoint x="484" y="1219.98" as="sourcePoint" />
            <mxPoint x="622" y="1220.98" as="targetPoint" />
            <Array as="points">
              <mxPoint x="562" y="1220.98" />
            </Array>
          </mxGeometry>
        </mxCell>
        <mxCell id="QsLFBTd6vt9vH_9BB9VM-179" value="" style="endArrow=classic;html=1;rounded=0;" parent="1" edge="1">
          <mxGeometry width="50" height="50" relative="1" as="geometry">
            <mxPoint x="624" y="1240" as="sourcePoint" />
            <mxPoint x="488" y="1240" as="targetPoint" />
          </mxGeometry>
        </mxCell>
        <mxCell id="QsLFBTd6vt9vH_9BB9VM-180" value="&lt;b&gt;Response&lt;/b&gt;" style="text;html=1;align=center;verticalAlign=middle;resizable=0;points=[];autosize=1;strokeColor=none;fillColor=none;" parent="1" vertex="1">
          <mxGeometry x="244" y="868" width="80" height="30" as="geometry" />
        </mxCell>
        <mxCell id="QsLFBTd6vt9vH_9BB9VM-181" value="&lt;b&gt;Add Room&lt;/b&gt;" style="text;html=1;align=center;verticalAlign=middle;resizable=0;points=[];autosize=1;strokeColor=none;fillColor=none;" parent="1" vertex="1">
          <mxGeometry x="234" y="928" width="80" height="30" as="geometry" />
        </mxCell>
        <mxCell id="QsLFBTd6vt9vH_9BB9VM-182" value="&lt;b&gt;Response&lt;/b&gt;" style="text;html=1;align=center;verticalAlign=middle;resizable=0;points=[];autosize=1;strokeColor=none;fillColor=none;" parent="1" vertex="1">
          <mxGeometry x="234" y="968" width="80" height="30" as="geometry" />
        </mxCell>
        <mxCell id="QsLFBTd6vt9vH_9BB9VM-183" value="&lt;b&gt;Send new Rate&lt;/b&gt;" style="text;html=1;align=center;verticalAlign=middle;resizable=0;points=[];autosize=1;strokeColor=none;fillColor=none;" parent="1" vertex="1">
          <mxGeometry x="209" y="1018" width="110" height="30" as="geometry" />
        </mxCell>
        <mxCell id="QsLFBTd6vt9vH_9BB9VM-184" value="&lt;b&gt;Response&lt;/b&gt;" style="text;html=1;align=center;verticalAlign=middle;resizable=0;points=[];autosize=1;strokeColor=none;fillColor=none;" parent="1" vertex="1">
          <mxGeometry x="224" y="1058" width="80" height="30" as="geometry" />
        </mxCell>
        <mxCell id="QsLFBTd6vt9vH_9BB9VM-185" value="&lt;b&gt;send roomID&lt;/b&gt;" style="text;html=1;align=center;verticalAlign=middle;resizable=0;points=[];autosize=1;strokeColor=none;fillColor=none;" parent="1" vertex="1">
          <mxGeometry x="204" y="1098" width="100" height="30" as="geometry" />
        </mxCell>
        <mxCell id="QsLFBTd6vt9vH_9BB9VM-186" value="&lt;b&gt;Response&lt;/b&gt;" style="text;html=1;align=center;verticalAlign=middle;resizable=0;points=[];autosize=1;strokeColor=none;fillColor=none;" parent="1" vertex="1">
          <mxGeometry x="219" y="1148" width="80" height="30" as="geometry" />
        </mxCell>
        <mxCell id="QsLFBTd6vt9vH_9BB9VM-187" value="&lt;b&gt;Request to Response&lt;/b&gt;" style="text;html=1;align=center;verticalAlign=middle;resizable=0;points=[];autosize=1;strokeColor=none;fillColor=none;" parent="1" vertex="1">
          <mxGeometry x="179" y="1188" width="150" height="30" as="geometry" />
        </mxCell>
        <mxCell id="QsLFBTd6vt9vH_9BB9VM-188" value="&lt;b&gt;Response&lt;/b&gt;" style="text;html=1;align=center;verticalAlign=middle;resizable=0;points=[];autosize=1;strokeColor=none;fillColor=none;" parent="1" vertex="1">
          <mxGeometry x="204" y="1238" width="80" height="30" as="geometry" />
        </mxCell>
        <mxCell id="QsLFBTd6vt9vH_9BB9VM-189" value="&lt;b&gt;Insert data&lt;/b&gt;" style="text;html=1;align=center;verticalAlign=middle;resizable=0;points=[];autosize=1;strokeColor=none;fillColor=none;" parent="1" vertex="1">
          <mxGeometry x="480" y="338" width="80" height="30" as="geometry" />
        </mxCell>
        <mxCell id="QsLFBTd6vt9vH_9BB9VM-190" value="&lt;b&gt;Reply&lt;/b&gt;" style="text;html=1;align=center;verticalAlign=middle;resizable=0;points=[];autosize=1;strokeColor=none;fillColor=none;" parent="1" vertex="1">
          <mxGeometry x="490" y="390" width="60" height="30" as="geometry" />
        </mxCell>
        <mxCell id="QsLFBTd6vt9vH_9BB9VM-191" value="&lt;b&gt;Insert data&lt;/b&gt;" style="text;html=1;align=center;verticalAlign=middle;resizable=0;points=[];autosize=1;strokeColor=none;fillColor=none;" parent="1" vertex="1">
          <mxGeometry x="480" y="440" width="80" height="30" as="geometry" />
        </mxCell>
        <mxCell id="QsLFBTd6vt9vH_9BB9VM-192" value="&lt;b&gt;Reply&lt;/b&gt;" style="text;html=1;align=center;verticalAlign=middle;resizable=0;points=[];autosize=1;strokeColor=none;fillColor=none;" parent="1" vertex="1">
          <mxGeometry x="490" y="488" width="60" height="30" as="geometry" />
        </mxCell>
        <mxCell id="QsLFBTd6vt9vH_9BB9VM-193" value="&lt;b&gt;Insert data&lt;/b&gt;" style="text;html=1;align=center;verticalAlign=middle;resizable=0;points=[];autosize=1;strokeColor=none;fillColor=none;" parent="1" vertex="1">
          <mxGeometry x="484" y="540" width="80" height="30" as="geometry" />
        </mxCell>
        <mxCell id="QsLFBTd6vt9vH_9BB9VM-194" value="&lt;b&gt;Reply&lt;/b&gt;" style="text;html=1;align=center;verticalAlign=middle;resizable=0;points=[];autosize=1;strokeColor=none;fillColor=none;" parent="1" vertex="1">
          <mxGeometry x="490" y="578" width="60" height="30" as="geometry" />
        </mxCell>
        <mxCell id="QsLFBTd6vt9vH_9BB9VM-195" value="&lt;b&gt;Request for view&lt;/b&gt;" style="text;html=1;align=center;verticalAlign=middle;resizable=0;points=[];autosize=1;strokeColor=none;fillColor=none;" parent="1" vertex="1">
          <mxGeometry x="460" y="628" width="120" height="30" as="geometry" />
        </mxCell>
        <mxCell id="QsLFBTd6vt9vH_9BB9VM-196" value="&lt;b&gt;Display data&lt;/b&gt;" style="text;html=1;align=center;verticalAlign=middle;resizable=0;points=[];autosize=1;strokeColor=none;fillColor=none;" parent="1" vertex="1">
          <mxGeometry x="488" y="668" width="90" height="30" as="geometry" />
        </mxCell>
        <mxCell id="QsLFBTd6vt9vH_9BB9VM-197" value="&lt;b&gt;Insert Data&lt;/b&gt;" style="text;html=1;align=center;verticalAlign=middle;resizable=0;points=[];autosize=1;strokeColor=none;fillColor=none;" parent="1" vertex="1">
          <mxGeometry x="485" y="918" width="90" height="30" as="geometry" />
        </mxCell>
        <mxCell id="QsLFBTd6vt9vH_9BB9VM-198" value="&lt;b&gt;Update Data&lt;/b&gt;" style="text;html=1;align=center;verticalAlign=middle;resizable=0;points=[];autosize=1;strokeColor=none;fillColor=none;" parent="1" vertex="1">
          <mxGeometry x="495" y="1018" width="90" height="30" as="geometry" />
        </mxCell>
        <mxCell id="QsLFBTd6vt9vH_9BB9VM-199" value="&lt;b&gt;Remove Data&lt;/b&gt;" style="text;html=1;align=center;verticalAlign=middle;resizable=0;points=[];autosize=1;strokeColor=none;fillColor=none;" parent="1" vertex="1">
          <mxGeometry x="490" y="1110" width="100" height="30" as="geometry" />
        </mxCell>
        <mxCell id="QsLFBTd6vt9vH_9BB9VM-201" value="&lt;b&gt;Req. For Views&lt;/b&gt;" style="text;html=1;align=center;verticalAlign=middle;resizable=0;points=[];autosize=1;strokeColor=none;fillColor=none;" parent="1" vertex="1">
          <mxGeometry x="495" y="1198" width="110" height="30" as="geometry" />
        </mxCell>
        <mxCell id="QsLFBTd6vt9vH_9BB9VM-203" value="&lt;b&gt;Display Data&lt;/b&gt;" style="text;html=1;align=center;verticalAlign=middle;resizable=0;points=[];autosize=1;strokeColor=none;fillColor=none;" parent="1" vertex="1">
          <mxGeometry x="500" y="1238" width="100" height="30" as="geometry" />
        </mxCell>
        <mxCell id="QsLFBTd6vt9vH_9BB9VM-204" value="&lt;b&gt;&lt;font style=&quot;font-size: 16px;&quot;&gt;DFD - 2&lt;/font&gt;&lt;/b&gt;" style="text;html=1;align=center;verticalAlign=middle;resizable=0;points=[];autosize=1;strokeColor=none;fillColor=none;" parent="1" vertex="1">
          <mxGeometry x="40" y="748" width="80" height="30" as="geometry" />
        </mxCell>
        <mxCell id="5qANwI-227oiRbBczQsm-1" value="&lt;b&gt;Reply&lt;/b&gt;" style="text;html=1;align=center;verticalAlign=middle;resizable=0;points=[];autosize=1;strokeColor=none;fillColor=none;" parent="1" vertex="1">
          <mxGeometry x="510" y="958" width="60" height="30" as="geometry" />
        </mxCell>
        <mxCell id="5qANwI-227oiRbBczQsm-2" value="&lt;b&gt;Reply&lt;/b&gt;" style="text;html=1;align=center;verticalAlign=middle;resizable=0;points=[];autosize=1;strokeColor=none;fillColor=none;" parent="1" vertex="1">
          <mxGeometry x="504" y="1058" width="60" height="30" as="geometry" />
        </mxCell>
        <mxCell id="5qANwI-227oiRbBczQsm-3" value="&lt;b&gt;Reply&lt;/b&gt;" style="text;html=1;align=center;verticalAlign=middle;resizable=0;points=[];autosize=1;strokeColor=none;fillColor=none;" parent="1" vertex="1">
          <mxGeometry x="510" y="1158" width="60" height="30" as="geometry" />
        </mxCell>
      </root>
    </mxGraphModel>
  </diagram>
</mxfile>
